<svg xmlns="http://www.w3.org/2000/svg" viewBox="0 0 128 128">
  <defs>
    <linearGradient id="grad" x1="0%" y1="0%" x2="100%" y2="100%">
      <stop offset="0%" style="stop-color:#6366f1;stop-opacity:1" />
      <stop offset="100%" style="stop-color:#8b5cf6;stop-opacity:1" />
    </linearGradient>
    <filter id="shadow">
      <feDropShadow dx="2" dy="4" stdDeviation="4" flood-opacity="0.3"/>
    </filter>
  </defs>
  <rect width="128" height="128" rx="28" fill="url(#grad)" filter="url(#shadow)"/>
  <path d="M40 36 h48 a6 6 0 0 1 6 6 v40 a6 6 0 0 1 -6 6 h-28 l-14 14 v-14 h-6 a6 6 0 0 1 -6 -6 v-40 a6 6 0 0 1 6 -6 z" fill="white" fill-opacity="0.95"/>
  <rect x="52" y="54" width="24" height="4" rx="2" fill="#6366f1"/>
  <rect x="52" y="66" width="24" height="4" rx="2" fill="#6366f1"/>
  <rect x="52" y="78" width="16" height="4" rx="2" fill="#6366f1"/>
</svg>
